<?xml version="1.0" encoding="utf-8"?>
<!-- Generator: Adobe Illustrator 26.2.1, SVG Export Plug-In . SVG Version: 6.00 Build 0)  -->
<svg version="1.1" id="Capa_1" xmlns="http://www.w3.org/2000/svg" xmlns:xlink="http://www.w3.org/1999/xlink" x="0px" y="0px"
	 viewBox="0 0 480 416" style="enable-background:new 0 0 480 416;" xml:space="preserve">
<g>
	<g>
		<path d="M455.6,240h-7.4v-24c0-15.9-8.8-30.3-22.3-36.6V56c0-3.2-1.8-6.1-4.5-7.3c2.9-5,4.4-10.8,4.5-16.7c0-17.7-13.3-32-29.7-32
			s-29.7,14.3-29.7,32c0,5.6,1.5,11.2,4.1,16h-261c2.7-4.8,4.1-10.4,4.1-16c0-17.7-13.3-32-29.7-32S54.2,14.3,54.2,32
			c0,5.9,1.6,11.7,4.5,16.7c-2.7,1.3-4.5,4.1-4.5,7.3v123.4c-13.5,6.4-22.3,20.7-22.3,36.6v24h-7.4c-4.1,0-7.4,3.6-7.4,8v112
			c0,4.4,3.3,8,7.4,8h7.4v40c0,4.4,3.3,8,7.4,8H69c4.1,0,7.4-3.6,7.4-8v-40h327.1v40c0,4.4,3.3,8,7.4,8h29.7c4.1,0,7.4-3.6,7.4-8
			v-40h7.4c4.1,0,7.4-3.6,7.4-8V248C463,243.6,459.7,240,455.6,240z M396.1,16c8.2,0,14.9,7.2,14.9,16s-6.7,16-14.9,16
			s-14.9-7.2-14.9-16S387.9,16,396.1,16z M83.9,16c8.2,0,14.9,7.2,14.9,16s-6.7,16-14.9,16S69,40.8,69,32S75.7,16,83.9,16z M69,64
			H411v112H381c4.9-6.9,7.6-15.3,7.6-24v-16c0-22.1-16.7-40-37.2-40H292c-20.5,0-37.1,17.9-37.2,40v16c0,8.7,2.7,17.1,7.6,24h-45
			c4.9-6.9,7.6-15.3,7.6-24v-16c0-22.1-16.7-40-37.2-40h-59.5c-20.5,0-37.1,17.9-37.2,40v16c0,8.7,2.7,17.1,7.6,24H69V64z
			 M373.8,136v16c0,13.3-10,24-22.3,24H292c-12.3,0-22.3-10.7-22.3-24v-16c0-13.3,10-24,22.3-24h59.5
			C363.8,112,373.8,122.7,373.8,136z M210.3,136v16c0,13.3-10,24-22.3,24h-59.5c-12.3,0-22.3-10.7-22.3-24v-16c0-13.3,10-24,22.3-24
			H188C200.3,112,210.3,122.7,210.3,136z M46.7,216c0-13.3,10-24,22.3-24H411c12.3,0,22.3,10.7,22.3,24v24H46.7V216z M61.6,400H46.7
			v-32h14.9V400z M433.3,400h-14.9v-32h14.9V400z M448.1,352H31.9v-96h416.3V352z"/>
	</g>
</g>
<g>
	<g>
		<path d="M83.9,352H54.2c-4.1,0-7.4,3.6-7.4,8s3.3,8,7.4,8h29.7c4.1,0,7.4-3.6,7.4-8S88,352,83.9,352z"/>
	</g>
</g>
<g>
	<g>
		<path d="M425.8,352H113.6c-4.1,0-7.4,3.6-7.4,8s3.3,8,7.4,8h312.2c4.1,0,7.4-3.6,7.4-8S429.9,352,425.8,352z"/>
	</g>
</g>
</svg>
