<?xml version="1.0" encoding="utf-8"?>
<!-- Generator: Adobe Illustrator 26.2.1, SVG Export Plug-In . SVG Version: 6.00 Build 0)  -->
<svg version="1.1" id="Capa_1" xmlns="http://www.w3.org/2000/svg" xmlns:xlink="http://www.w3.org/1999/xlink" x="0px" y="0px"
	 viewBox="0 0 512 512" style="enable-background:new 0 0 512 512;" xml:space="preserve">
<style type="text/css">
	.st0{fill:none;}
</style>
<line class="st0" x1="18.7" y1="456.2" x2="68.2" y2="393"/>
<line class="st0" x1="57.2" y1="388.5" x2="57" y2="388.5"/>
<line class="st0" x1="24.7" y1="469" x2="140.1" y2="344.2"/>
<path d="M502.7,140.2h-19.9c-5,0-9,4-9,9v33H38.2v-33c0-5-4-9-9-9h-3.7V84.8c0-29.4,23.9-53.3,53.4-53.2c27.2,0,50,20.5,52.9,47.5
	c-8.2,1.3-15.9,5-21.9,10.7c-6.6,6.2-10.3,14.8-10.2,23.8l0.1,3.9l-4.7,8.9l-11.6,1.3c-3.4,0.4-5.9,3.5-5.5,6.9
	c0.2,1.4,0.8,2.6,1.7,3.6l8.1,8.4l-2.3,11.4c-0.7,3.4,1.5,6.7,4.9,7.3c1.3,0.3,2.7,0.1,4-0.5l10.5-5.1l10.2,5.7
	c3,1.7,6.8,0.6,8.5-2.4c0.7-1.2,0.9-2.6,0.7-3.9l-1.6-11.5l8.6-7.9c2.5-2.3,2.7-6.3,0.4-8.8c-0.9-1-2.2-1.7-3.5-1.9l-11.5-2
	l-4.3-9.4l-0.1-4.1c0-5.5,2.2-10.8,6.2-14.6c5.4-5.1,12.6-7.9,20-7.8c6.9,0.1,13.5,2.5,19,6.7c4.8,3.8,7.5,9.6,7.5,15.7v0.2l0.1,3.8
	l-4.7,8.8l-11.6,1.3c-3.4,0.4-5.9,3.5-5.5,6.9c0.2,1.4,0.8,2.6,1.7,3.6l8.1,8.4l-2.3,11.4c-0.7,3.4,1.5,6.7,4.9,7.3
	c1.3,0.3,2.7,0.1,4-0.5l10.5-5.1l10.2,5.7c3,1.7,6.8,0.6,8.5-2.4c0.7-1.2,0.9-2.6,0.7-3.9l-1.6-11.5l8.6-7.9
	c2.5-2.3,2.7-6.3,0.4-8.8c-0.9-1-2.2-1.7-3.5-1.9l-11.5-2l-4.3-9.4l-0.1-4.1c0-9.9-4.6-19.3-12.3-25.5c-6-4.7-13.1-7.8-20.7-8.9
	c-3.2-36.2-35.1-62.9-71.3-59.7c-33.9,3-60,31.4-60,65.5v55.4H9.3c-5,0-9,4-9,9v322.5c0,5,4,9,9,9h19.9c5,0,9-4,9-9v-24.1
	c17.7-2.3,77.3-9.7,151.5-13.7c143-7.7,232.8,2.7,284.1,13.3v24.5c0,5,4,9,9,9h19.9c5,0,9-4,9-9V149.1
	C511.7,144.2,507.7,140.2,502.7,140.2z M113.3,139l-1.7,1.5c-1.5,1.4-2.2,3.4-2,5.5l0.3,2.3l-2-1.1c-1.8-1-4-1.1-5.8-0.2l-2.1,1
	l0.5-2.2c0.4-2-0.2-4.1-1.6-5.6l-1.6-1.6l2.3-0.3c2-0.2,3.8-1.5,4.8-3.3l1.1-2l1,2.1c0.9,1.9,2.6,3.2,4.6,3.5L113.3,139z M169.7,135
	l1.1-2l1,2.1c0.9,1.9,2.6,3.2,4.6,3.5l2.3,0.4l-1.7,1.5c-1.5,1.4-2.2,3.4-2,5.5l0.3,2.3l-2-1.1c-1.8-1-4-1.1-5.8-0.2l-2.1,1l0.5-2.2
	c0.4-2-0.2-4.1-1.6-5.6l-1.6-1.6l2.3-0.3C166.9,138.1,168.7,136.9,169.7,135L169.7,135z M25.7,468.1h-13V152.6h13V468.1z M38.2,224
	h27.1v124.5H38.2L38.2,224z M38.2,361h27.1v31.4H38.2L38.2,361z M473.8,434.4c-52.4-10.6-142.9-20.7-284.9-13.1
	c-72.4,3.9-131,11-150.7,13.6v-30.1h435.6V434.4z M77.8,392.4V224h19.1v168.3H77.8z M149.5,361v31.4h-40.1V361H149.5z M109.3,348.5
	V224h40.1v124.5H109.3z M161.9,392.4V224H181v168.3H161.9z M233.7,361v31.4h-40.1V361H233.7z M193.5,348.5V224h40.1v124.5H193.5z
	 M246.1,392.4V224h19.1v168.3H246.1z M317.8,361v31.4h-40.1V361H317.8z M277.7,348.5V224h40.1v124.5H277.7z M330.3,392.4V224h19.1
	v168.3H330.3z M402,361v31.4h-40.1V361H402z M361.9,348.5V224H402v124.5H361.9z M414.5,392.4V224h19.1v168.3H414.5z M473.8,392.4
	h-27.7V361h27.7V392.4z M473.8,348.5h-27.7V224h27.7V348.5z M473.8,211.6H38.2v-17h435.6V211.6z M499.2,468.1h-13V152.6h13V468.1z"
	/>
<path d="M375.2,167.4c-3.4,0-6.2,2.8-6.2,6.2s2.8,6.2,6.2,6.2h2.5c3.4,0,6.2-2.8,6.2-6.2s-2.8-6.2-6.2-6.2H375.2z"/>
<path d="M389.3,173.7c0,3.4,2.8,6.2,6.2,6.2h63.1c3.4,0,6.2-2.8,6.2-6.2s-2.8-6.2-6.2-6.2h-63.1
	C392.1,167.4,389.3,170.2,389.3,173.7z"/>
</svg>
