<?xml version="1.0" encoding="utf-8"?>
<!-- Generator: Adobe Illustrator 26.2.1, SVG Export Plug-In . SVG Version: 6.00 Build 0)  -->
<svg version="1.1" id="Layer_1" xmlns="http://www.w3.org/2000/svg" xmlns:xlink="http://www.w3.org/1999/xlink" x="0px" y="0px"
	 viewBox="0 0 480 416" style="enable-background:new 0 0 480 416;" xml:space="preserve">
<g>
	<g>
		<g>
			<path d="M473.2,82.9c-4.1-4.4-9.8-7-15.9-7H451c-16.7,0-30.4,12.6-31.9,29.2l-6.9,78.6c-0.6,7-6.3,12.2-13.3,12.2h-59.7
				c-19.1,0-34.7,15.6-34.7,34.7v3.4c0,11.6,9.4,21,21,21h12.8l-12.6,41.2c0,0,0,0.1,0,0.1l-9.6,31.5c-1.1,3.7,0.9,7.6,4.6,8.7
				c0.7,0.2,1.4,0.3,2.1,0.3c3,0,5.8-1.9,6.7-5l8.1-26.5h96l8.1,26.5c0.9,3,3.7,5,6.7,5c0.7,0,1.4-0.1,2.1-0.3
				c3.7-1.1,5.8-5,4.6-8.7L432,253.2c4-1.1,7.9-2.8,11.5-4.8c3.4-1.9,4.5-6.2,2.6-9.6s-6.2-4.5-9.6-2.6c-5.6,3.2-12.1,4.9-18.6,4.9
				h-70.4c0,0,0,0-0.1,0h-22.2c-3.8,0-7-3.1-7-7v-3.4c0-11.4,9.3-20.7,20.7-20.7h59.7c14.3,0,26-10.7,27.3-25l6.9-78.6
				c0.8-9.4,8.5-16.5,18-16.5h6.4c2.1,0,4.1,0.9,5.5,2.4c1.4,1.6,2.1,3.6,1.9,5.7L455.3,207c-0.2,2.7-0.8,5.3-1.6,7.9
				c-1.1,3.7,0.9,7.6,4.6,8.8c3.7,1.1,7.6-0.9,8.8-4.6c1.1-3.5,1.8-7.2,2.1-10.8l9.6-108.9C479.3,93.4,477.3,87.4,473.2,82.9z
				 M352.8,255.2H418l11.1,36.3h-87.4L352.8,255.2z"/>
			<path d="M140.9,196.1H81.2c-7,0-12.7-5.3-13.3-12.2l-6.9-78.6C59.5,88.5,45.7,76,29,76h-6.4c-6,0-11.8,2.5-15.9,7
				c-4.1,4.4-6.1,10.4-5.6,16.4l9.6,108.9c1.1,12.9,7,24.7,16.5,33.4c6,5.5,13.1,9.4,20.7,11.6L25.1,328c-1.1,3.7,0.9,7.6,4.6,8.7
				c0.7,0.2,1.4,0.3,2.1,0.3c3,0,5.8-1.9,6.7-5l8.1-26.5h96l8.1,26.5c0.9,3,3.7,5,6.7,5c0.7,0,1.4-0.1,2.1-0.3
				c3.7-1.1,5.8-5,4.6-8.7l-9.6-31.5c0,0,0-0.1,0-0.1l-12.6-41.2h12.8c11.6,0,21-9.4,21-21v-3.4
				C175.6,211.6,160.1,196.1,140.9,196.1z M50.9,291.5L62,255.2h65.2l11.1,36.3H50.9z M161.6,234.2c0,3.8-3.1,7-7,7h-22.2
				c0,0-0.1,0-0.1,0H62c-1.5,0-3-0.1-4.4-0.3c0,0,0,0,0,0c-17.5-2-31.3-15.9-32.9-33.9L15.2,98.1C15,96,15.7,94,17.1,92.4
				c1.4-1.6,3.4-2.4,5.5-2.4H29c9.4,0,17.1,7.1,18,16.5l6.9,78.6v0c1.3,14.3,13,25,27.3,25h59.7c11.4,0,20.7,9.3,20.7,20.7
				L161.6,234.2L161.6,234.2z"/>
			<path d="M293.1,313.9c-2.9-11.1-12.9-18.9-24.4-18.9h-4.3V167.7h86.2c5,0,9.6-2.2,12.7-6.1c3.1-3.8,4.4-8.8,3.4-13.7
				c-3-14.6-16-25.3-31-25.3H190.2c-3.9,0-7,3.1-7,7c0,3.9,3.1,7,7,7h145.5c8.3,0,15.6,5.9,17.3,14.1c0.2,1-0.2,1.7-0.5,2
				c-0.3,0.3-0.9,0.9-1.9,0.9H129.4c-1,0-1.6-0.6-1.9-0.9c-0.3-0.3-0.7-1.1-0.5-2c1.7-8.2,8.9-14.1,17.3-14.1h13.1c3.9,0,7-3.1,7-7
				c0-3.9-3.1-7-7-7h-13.1c-14.9,0-28,10.6-31,25.3c-1,4.9,0.2,9.9,3.4,13.7c3.1,3.8,7.8,6.1,12.7,6.1h86.2v127.4h-4.3
				c-11.5,0-21.5,7.8-24.4,18.9l-1.6,6.3c-1.1,4-0.2,8.3,2.4,11.6c2.6,3.3,6.4,5.2,10.6,5.2h83.6c4.2,0,8-1.9,10.6-5.2
				c2.6-3.3,3.4-7.5,2.4-11.6L293.1,313.9z M229.6,167.7L229.6,167.7h20.9v127.4h-20.9V167.7z M199,323l1.4-5.6
				c1.3-4.9,5.7-8.4,10.8-8.4h57.5c5.1,0,9.6,3.4,10.8,8.4l1.4,5.6H199z"/>
		</g>
	</g>
</g>
</svg>
