<?xml version="1.0" encoding="utf-8"?>
<!-- Generator: Adobe Illustrator 26.2.1, SVG Export Plug-In . SVG Version: 6.00 Build 0)  -->
<svg version="1.1" id="Capa_1" xmlns="http://www.w3.org/2000/svg" xmlns:xlink="http://www.w3.org/1999/xlink" x="0px" y="0px"
	 viewBox="0 0 512 512" style="enable-background:new 0 0 512 512;" xml:space="preserve">
<style type="text/css">
	.st0{fill:none;}
</style>
<g id="Page-1">
	<g id="_x30_10---Hallway">
		<path id="Shape" d="M118.3,160.6L50,133.3c-5.3-2.1-11.2-1.5-15.9,1.7c-4.7,3.2-7.5,8.5-7.5,14.1v324L3.3,497.6
			c-2.4,2.5-3,6.1-1.7,9.2C3,510,6.1,512,9.5,512h494.9c3.4,0,6.5-2,7.8-5.2s0.7-6.8-1.7-9.2l-23.3-24.5v-324c0-5.7-2.8-11-7.5-14.1
			c-4.7-3.2-10.6-3.8-15.9-1.7l-68.3,27.3c-6.5,2.6-10.8,8.9-10.7,15.9v188.9l-34.1-35.9V132.3L509.5,15.4c3.3-2.9,3.8-7.9,1.2-11.4
			c-2.6-3.5-7.5-4.5-11.3-2.2L339.5,119.5H174.5L14.6,1.7C10.8-0.7,5.8,0.2,3.1,3.8S1,12.5,4.5,15.4l158.7,116.9v197.1L129,365.3
			V176.5C129,169.5,124.8,163.2,118.3,160.6L118.3,160.6z M43.7,149.1l68.3,27.3v99.8l-12.3,6.2c-4.2,2.1-5.9,7.2-3.8,11.5
			c2.1,4.2,7.2,5.9,11.5,3.8l4.7-2.3v87.9l-68.3,71.9V149.1z M76.5,494.9L190,375.5h134l113.5,119.5H76.5z M461,494.9L333.9,361.1
			c-1.6-1.7-3.9-2.7-6.2-2.7H186.3c-2.3,0-4.6,1-6.2,2.7L53,494.9H29.4l145.9-153.6h163.3l145.9,153.6H461z M291.1,256h-8.5
			c-4.7,0-8.5,3.8-8.5,8.5s3.8,8.5,8.5,8.5h8.5v51.2h-68.3V187.7h68.3V256z M402.1,176.5l68.3-27.3v144.2l-4.7-2.4
			c-4.2-2.1-9.3-0.4-11.5,3.8c-2.1,4.2-0.4,9.3,3.8,11.5l12.3,6.2v142.7l-68.3-71.9V176.5z M180.2,136.5h153.6v187.7h-25.6V187.7
			c0-9.4-7.6-17.1-17.1-17.1h-68.3c-9.4,0-17.1,7.6-17.1,17.1v136.5h-25.6V136.5z"/>
		<path id="Shape_00000152241599181215968080000001726048918751998348_" d="M257,68.3c23.5,0,42.7-15.3,42.7-34.1S280.5,0,257,0
			s-42.7,15.3-42.7,34.1S233.5,68.3,257,68.3z M257,17.1c13.9,0,25.6,7.8,25.6,17.1S270.9,51.2,257,51.2c-13.9,0-25.6-7.8-25.6-17.1
			S243.1,17.1,257,17.1z"/>
	</g>
</g>
<line class="st0" x1="18.7" y1="456.2" x2="68.2" y2="393"/>
<line class="st0" x1="57.2" y1="388.5" x2="57" y2="388.5"/>
<line class="st0" x1="24.5" y1="475.3" x2="139.9" y2="350.5"/>
</svg>
