<?xml version="1.0" encoding="utf-8"?>
<!-- Generator: Adobe Illustrator 26.2.1, SVG Export Plug-In . SVG Version: 6.00 Build 0)  -->
<svg version="1.1" id="Capa_1" xmlns="http://www.w3.org/2000/svg" xmlns:xlink="http://www.w3.org/1999/xlink" x="0px" y="0px"
	 viewBox="0 0 512 512" style="enable-background:new 0 0 512 512;" xml:space="preserve">
<path d="M486.4,94.2c-14.1,0-25.6,11.5-25.6,25.6v25.6h-68.3v-25.6c-0.1-14.1-11.5-25.5-25.6-25.6c-14.1,0-25.6,11.5-25.6,25.6v25.6
	H145.1v-17.1c0-14.1-11.5-25.6-25.6-25.6H51.2V25.9c0-14.1-11.5-25.6-25.6-25.6S0,11.7,0,25.9v460.8c0,14.1,11.5,25.6,25.6,25.6
	s25.6-11.5,25.6-25.6v-25.6h290.1v25.6c0,14.1,11.5,25.6,25.6,25.6c14.1,0,25.6-11.5,25.6-25.6v-17.1h68.3v17.1
	c0,14.1,11.5,25.6,25.6,25.6c14.1,0,25.6-11.5,25.6-25.6V119.8C511.9,105.6,500.5,94.2,486.4,94.2z M128,333.1H51.2v-25.6h68.3
	c4.7,0,8.5,3.8,8.5,8.5V333.1z M341.3,350.2v17.1H51.2v-17.1H341.3z M145.1,333.1V316c0-14.1-11.5-25.6-25.6-25.6H51.2v-17.1h290.1
	v59.7H145.1z M51.2,256.3v-59.7h290.1v59.7H51.2z M51.2,179.5v-17.1h290.1v17.1H51.2z M119.5,119.8c4.7,0,8.5,3.8,8.5,8.5v17.1H51.2
	v-25.6H119.5z M34.1,486.7c0,4.7-3.8,8.5-8.5,8.5s-8.5-3.8-8.5-8.5V25.9c0-4.7,3.8-8.5,8.5-8.5s8.5,3.8,8.5,8.5V486.7z M51.2,444
	v-59.7h290.1V444H51.2z M494.9,486.7c0,4.7-3.8,8.5-8.5,8.5c-4.7,0-8.5-3.8-8.5-8.5v-25.6c0-4.7-3.8-8.5-8.5-8.5H384
	c-4.7,0-8.5,3.8-8.5,8.5v25.6c0,4.7-3.8,8.5-8.5,8.5s-8.5-3.8-8.5-8.5V119.8c0-4.7,3.8-8.5,8.5-8.5c2.3,0,4.5,0.9,6.1,2.6
	c1.6,1.6,2.5,3.7,2.4,5.9v34.1c0,4.7,3.8,8.5,8.5,8.5h85.3c4.7,0,8.5-3.8,8.5-8.5v-34.1c0-4.7,3.8-8.5,8.5-8.5
	c2.2,0,4.4,0.9,5.9,2.4l0.2,0.2c1.6,1.6,2.5,3.7,2.4,5.9V486.7z"/>
<path d="M460.8,367.2h-68.3c-9.4,0-17.1,7.6-17.1,17.1v34.1c0,9.4,7.6,17.1,17.1,17.1h68.3c9.4,0,17.1-7.6,17.1-17.1v-34.1
	C477.9,374.9,470.2,367.2,460.8,367.2z M392.5,418.4v-34.1h68.3v34.1H392.5z"/>
<path d="M460.8,273.4h-68.3c-9.4,0-17.1,7.6-17.1,17.1v42.7c0,9.4,7.6,17.1,17.1,17.1h68.3c9.4,0,17.1-7.6,17.1-17.1v-42.7
	C477.9,281,470.2,273.4,460.8,273.4z M392.5,333.1v-42.7h68.3v42.7H392.5z"/>
<path d="M460.8,179.5h-68.3c-9.4,0-17.1,7.6-17.1,17.1v42.7c0,9.4,7.6,17.1,17.1,17.1h68.3c9.4,0,17.1-7.6,17.1-17.1v-42.7
	C477.9,187.1,470.2,179.5,460.8,179.5z M392.5,239.2v-42.7h68.3v42.7H392.5z"/>
</svg>
