<svg id="icons" height="512" viewBox="0 0 340 340" width="512" xmlns="http://www.w3.org/2000/svg"><path d="m167.085 97.784h137.605a0 0 0 0 1 0 0v4.252a11.438 11.438 0 0 1 -11.438 11.438h-114.729a11.438 11.438 0 0 1 -11.438-11.438v-4.252a0 0 0 0 1 0 0z" fill="#ffaf9f"/><path d="m217.92 59.984a17.636 17.636 0 0 1 -3.079-10.073v-10.943h-18.016v10.943a17.636 17.636 0 0 1 -3.079 10.073 34.209 34.209 0 0 0 -5.93 19.687c0 15.348 8.675 18.113 8.675 18.113h18.684s8.674-2.765 8.674-18.113a34.21 34.21 0 0 0 -5.929-19.687z" fill="#fff"/><path d="m280.321 97.784h-33.264v-44a4.406 4.406 0 0 1 4.406-4.406h24.452a4.406 4.406 0 0 1 4.406 4.406z" fill="#fff"/><circle cx="90.476" cy="68.376" fill="#ffaf9f" r="48.15"/><circle cx="90.476" cy="68.376" fill="#fff" r="34.108"/><path d="m280.494 259.926s-24.781-29.3 9.755-70.187a1.209 1.209 0 0 1 2.04.318c2.969 7.266 12.542 35.9-4.374 69.869z" fill="#3c3e4f"/><path d="m295.051 317.657h-23.48a10.615 10.615 0 0 1 -10.56-9.543l-4.217-41.614h53.034l-4.217 41.616a10.615 10.615 0 0 1 -10.56 9.541z" fill="#fff"/><path d="m277.861 266.5c.94-9.98 2.028-15.858 9.286-24.975a55.587 55.587 0 0 1 11.54-9.681 70.721 70.721 0 0 0 16.758-14.644 1.21 1.21 0 0 1 2.15.633c.941 9.136 1.8 37.269-21.3 48.666z" fill="#c5dd7e"/><path d="m269.962 266.5s-32.771-7.9-22.854-62.938a1.212 1.212 0 0 1 1.92-.751c6.778 5.1 33.136 27.323 31.466 63.689z" fill="#8ab260"/><path d="m271.571 317.657h23.48a10.615 10.615 0 0 0 10.56-9.543l4.217-41.616h-9.4l-3.713 30.566a11.512 11.512 0 0 1 -10.327 10.071l-25.12 2.415a10.609 10.609 0 0 0 10.303 8.107z" fill="#dfe3ea"/><path d="m96.386 151.39h50a34.686 34.686 0 0 1 34.686 34.686v94.6a0 0 0 0 1 0 0h-119.372a0 0 0 0 1 0 0v-94.6a34.686 34.686 0 0 1 34.686-34.686z" fill="#6f99dd"/><path d="m181.07 208.177h-3.751a26.9 26.9 0 0 0 -26.446 22l-.4 2.147a6.808 6.808 0 0 1 -6.694 5.568h-44.909a6.808 6.808 0 0 1 -6.694-5.568l-.4-2.147a26.9 26.9 0 0 0 -26.446-22h-3.63v72.5h119.37z" fill="#3c3e4f"/><path d="m75.854 274.75h91.061v45.024h-91.061z" fill="#6f99dd"/><path d="m58.566 216.691h-17.666a18.9 18.9 0 0 0 -18.9 18.9v4.523a18.9 18.9 0 0 0 18.9 18.9v49.47a11.29 11.29 0 0 0 11.29 11.29h25.276v-84.183a18.9 18.9 0 0 0 -18.9-18.9z" fill="#6f99dd"/><path d="m184.2 216.691h17.664a18.9 18.9 0 0 1 18.9 18.9v4.523a18.9 18.9 0 0 1 -18.9 18.9v49.47a11.29 11.29 0 0 1 -11.29 11.29h-25.274v-84.183a18.9 18.9 0 0 1 18.9-18.9z" fill="#6f99dd"/><g fill="#3c3e4f"><path d="m96.22 174.008a3.209 3.209 0 1 0 -4.538 4.539l5.459 5.459-5.459 5.46a3.209 3.209 0 1 0 4.538 4.534l5.459-5.459 5.46 5.459a3.21 3.21 0 1 0 4.539-4.539z"/><path d="m108.74 180.155a3.194 3.194 0 0 0 2.268-.94l.669-.668a3.209 3.209 0 1 0 -4.537-4.539l-.669.668a3.209 3.209 0 0 0 2.269 5.479z"/><path d="m135.631 174.008a3.21 3.21 0 0 0 -4.539 4.539l5.459 5.459-5.459 5.459a3.21 3.21 0 0 0 4.539 4.535l5.459-5.459 5.459 5.459a3.21 3.21 0 0 0 4.539-4.539z"/><path d="m148.15 180.155a3.2 3.2 0 0 0 2.27-.94l.668-.668a3.21 3.21 0 0 0 -4.539-4.539l-.668.668a3.21 3.21 0 0 0 2.269 5.479z"/><path d="m115.808 201.777a3.21 3.21 0 1 0 -4.539 4.539l5.459 5.459-5.459 5.459a3.21 3.21 0 0 0 4.539 4.539l5.459-5.459 5.459 5.459a3.21 3.21 0 0 0 4.539-4.539z"/><path d="m128.328 207.923a3.2 3.2 0 0 0 2.269-.939l.668-.668a3.21 3.21 0 1 0 -4.539-4.539l-.668.668a3.209 3.209 0 0 0 2.27 5.478z"/></g><path d="m92.464 248.146h57.842a15 15 0 0 1 15 15v17.573a3.5 3.5 0 0 1 -3.5 3.5h-80.838a3.5 3.5 0 0 1 -3.5-3.5v-17.575a15 15 0 0 1 14.996-14.998z" fill="#a2c4f9"/><path d="m214.841 49.911v-10.943h-7.885v14.143a25.176 25.176 0 0 0 3.012 11.789c3.424 6.458 7.416 18.936-1.858 32.887h7.065s8.674-2.765 8.674-18.113a34.21 34.21 0 0 0 -5.929-19.687 17.636 17.636 0 0 1 -3.079-10.076z" fill="#dfe3ea"/><path d="m268.653 97.784h11.668v-44a4.406 4.406 0 0 0 -4.406-4.406h-7.262z" fill="#dfe3ea"/><path d="m273.439 45.9h-19.5a10.376 10.376 0 0 0 -10.364 10.364v38.036h-19.707c1.928-3.236 3.463-7.916 3.463-14.631a37.591 37.591 0 0 0 -6.552-21.669 14.1 14.1 0 0 1 -2.456-8.087v-10.945a3.483 3.483 0 0 0 -3.482-3.482h-18.017a3.482 3.482 0 0 0 -3.481 3.482v10.943a14.078 14.078 0 0 1 -2.457 8.089 37.6 37.6 0 0 0 -6.551 21.673c0 6.715 1.535 11.395 3.463 14.631h-20.713a3.483 3.483 0 0 0 -3.482 3.482v4.252a14.936 14.936 0 0 0 14.92 14.919h114.73a14.937 14.937 0 0 0 14.92-14.919v-4.254a3.483 3.483 0 0 0 -3.482-3.482h-20.891v-38.04a10.376 10.376 0 0 0 -10.361-10.362zm-22.9 10.364a3.4 3.4 0 0 1 3.4-3.4h19.5a3.4 3.4 0 0 1 3.4 3.4v38.036h-26.3zm-59.239 23.407a30.667 30.667 0 0 1 5.307-17.7 21.015 21.015 0 0 0 3.7-12.06v-7.461h11.053v7.461a21.022 21.022 0 0 0 3.7 12.06 30.656 30.656 0 0 1 5.309 17.7c0 10.629-4.519 13.878-5.923 14.631h-17.224c-1.401-.75-5.922-3.995-5.922-14.631zm109.91 22.365a7.966 7.966 0 0 1 -7.956 7.956h-114.731a7.966 7.966 0 0 1 -7.956-7.956v-.77h130.642z" fill="#3c3e4f"/><path d="m38.845 68.376a51.631 51.631 0 1 0 51.63-51.632 51.69 51.69 0 0 0 -51.63 51.632zm51.63-44.668a44.668 44.668 0 1 1 -44.667 44.668 44.719 44.719 0 0 1 44.667-44.668z" fill="#3c3e4f"/><path d="m90.475 105.966a37.59 37.59 0 1 0 -37.589-37.59 37.633 37.633 0 0 0 37.589 37.59zm0-68.216a30.626 30.626 0 1 1 -30.626 30.626 30.661 30.661 0 0 1 30.626-30.626z" fill="#3c3e4f"/><path d="m90.475 71.858h9.638a3.482 3.482 0 0 0 0-6.964h-6.156v-12.77a3.482 3.482 0 1 0 -6.963 0v16.252a3.482 3.482 0 0 0 3.481 3.482z" fill="#3c3e4f"/><path d="m320.638 214.3a3.482 3.482 0 0 0 -6.235-1.439 62.666 62.666 0 0 1 -13.84 13.47c.506-4.148.584-7.639.589-7.883 0-.037 0-.075 0-.112-.247-18.773-6.273-31.091-6.53-31.607a3.482 3.482 0 0 0 -5.739-.74c-9.735 11.143-16.035 22.47-18.823 33.779a85.443 85.443 0 0 0 -20.681-20.987 3.481 3.481 0 0 0 -5.338 2.241c-4.765 24.551-2.148 43.549 7.778 56.468a38.235 38.235 0 0 0 5.2 5.531h-.226a3.482 3.482 0 0 0 -3.465 3.832l4.218 41.615a14.055 14.055 0 0 0 14.024 12.675h23.48a14.056 14.056 0 0 0 14.024-12.675l4.217-41.615a3.482 3.482 0 0 0 -3.464-3.832h-2.375c18.573-17.342 13.448-47.282 13.186-48.721zm-45.075 14.51c1.019-11.12 6-22.45 14.841-33.745a79.191 79.191 0 0 1 3.784 23.3c-.017.7-.244 8.389-1.768 13.647a58.276 58.276 0 0 0 -5.806 5.014 39.022 39.022 0 0 0 -5.278 6.351 75.65 75.65 0 0 0 -5.774-14.559zm-25.658-20.824c8.638 7.347 27.088 26.39 27.182 55.031h-6.65c-3.415-1.038-27.292-9.977-20.532-55.031zm52.242 99.776a7.113 7.113 0 0 1 -7.1 6.413h-23.48a7.111 7.111 0 0 1 -7.1-6.412l-3.83-37.783h45.329zm-18.1-44.745a74.035 74.035 0 0 0 -.4-7.551c1.064-7.1 7.678-13.315 7.74-13.373.036-.033.071-.067.105-.1a54.668 54.668 0 0 1 9.08-7.22 78.344 78.344 0 0 0 13.861-11.21c.211 11.058-2.032 30.6-19 39.455z" fill="#3c3e4f"/><path d="m201.867 213.209h-17.315v-27.133a38.212 38.212 0 0 0 -38.168-38.168h-50a38.212 38.212 0 0 0 -38.169 38.168v27.133h-17.315a22.407 22.407 0 0 0 -22.381 22.382v4.523a22.419 22.419 0 0 0 18.9 22.112v46.258a14.789 14.789 0 0 0 14.772 14.772h138.387a14.788 14.788 0 0 0 14.771-14.772v-46.258a22.42 22.42 0 0 0 18.9-22.112v-4.523a22.408 22.408 0 0 0 -22.382-22.382zm-105.481-58.338h50a31.24 31.24 0 0 1 31.2 31.2v28.132a22.421 22.421 0 0 0 -15.766 21.383v13.118a18.372 18.372 0 0 0 -11.5-4.045h-57.869a18.369 18.369 0 0 0 -11.5 4.045v-13.113a22.42 22.42 0 0 0 -15.767-21.383v-28.132a31.24 31.24 0 0 1 31.202-31.205zm-15.438 132.829h72a3.482 3.482 0 1 0 0-6.963h-72v-17.606a11.517 11.517 0 0 1 11.5-11.5h57.867a11.517 11.517 0 0 1 11.5 11.5v53.161h-80.867zm-36.564 20.784v-45.984h8.53a3.482 3.482 0 1 0 0-6.964h-12.014a15.435 15.435 0 0 1 -15.417-15.418v-4.523a15.435 15.435 0 0 1 15.417-15.422h17.667a15.435 15.435 0 0 1 15.417 15.418v80.7h-21.792a7.816 7.816 0 0 1 -7.808-7.807zm172.9-68.37a15.435 15.435 0 0 1 -15.418 15.418h-12a3.482 3.482 0 0 0 0 6.964h8.517v45.988a7.817 7.817 0 0 1 -7.808 7.808h-21.79v-80.7a15.435 15.435 0 0 1 15.415-15.419h17.664a15.435 15.435 0 0 1 15.418 15.418z" fill="#3c3e4f"/></svg>