<?xml version="1.0" encoding="utf-8"?>
<!-- Generator: Adobe Illustrator 26.2.1, SVG Export Plug-In . SVG Version: 6.00 Build 0)  -->
<svg version="1.1" id="Layer_1" xmlns="http://www.w3.org/2000/svg" xmlns:xlink="http://www.w3.org/1999/xlink" x="0px" y="0px"
	 viewBox="0 0 480 416" style="enable-background:new 0 0 480 416;" xml:space="preserve">
<path d="M426.7,242.6H406v-69.2c0-19.1-15.5-34.6-34.6-34.6H260.6c-19.1,0-34.6,15.5-34.6,34.6v69.2h-20.8
	c-11.5,0-20.8,9.3-20.8,20.8v69.2c0.1,18.2,14.2,33.3,32.4,34.4l-10,34.8h-64.7c-3.3-16.1-17.5-27.7-33.9-27.7H94.5V55.4
	c0-21.7,16.7-39.6,38.3-41.1s40.7,13.9,43.8,35.3l0.1,0.8c-8.9,3.7-14.1,13.1-12.5,22.6l1.9,11.2L147.6,116
	c-2.5,4.3-2.5,9.6-0.1,13.8c2.5,4.3,7,7,12,7c0.8,0,1.6-0.1,2.4-0.2l66.4-11.2c5.3-0.9,9.6-4.8,11-9.9c1.4-5.2-0.3-10.7-4.3-14.2
	l-27.9-23.9l-1.9-11.2c-1.3-7.8-7-14.1-14.6-16.4l-0.3-2.1C186.2,19,160.7-1.6,131.8,0.5s-51.2,26.1-51.2,55v318.7H66.8v-6.9
	c0-3.8-3.1-6.9-6.9-6.9c-3.8,0-6.9,3.1-6.9,6.9v9.9c-12.6,5.5-20.7,17.9-20.8,31.7c0,3.8,3.1,6.9,6.9,6.9h401.5
	c3.8,0,6.9-3.1,6.9-6.9c0-3.8-3.1-6.9-6.9-6.9H425l-10-34.8c18.2-1.1,32.4-16.2,32.4-34.4v-69.2
	C447.5,251.9,438.2,242.6,426.7,242.6z M226,111.7L159.6,123l18.1-31.1l20.9-3.5L226,111.7L226,111.7z M192.7,75.2L179,77.5
	l-1.2-6.8c-0.6-3.8,1.9-7.3,5.7-8c0.4-0.1,0.8-0.1,1.2-0.1c3.4,0,6.3,2.4,6.8,5.8L192.7,75.2z M260.6,152.6h110.8
	c11.5,0,20.8,9.3,20.8,20.8v70.5c-8.3,2.9-13.8,10.7-13.8,19.5v14c-6-4.6-13.3-7.1-20.8-7.1h-24.8l15.9-15.9c2.6-2.7,2.6-7-0.1-9.7
	c-2.7-2.7-7-2.7-9.7-0.1l-15.9,15.9v-31.7c0-3.8-3.1-6.9-6.9-6.9c-3.8,0-6.9,3.1-6.9,6.9v31.7l-15.9-15.9c-2.7-2.6-7-2.6-9.7,0.1
	c-2.7,2.7-2.7,7-0.1,9.7l15.9,15.9h-24.8c-7.5,0-14.8,2.5-20.8,7.1v-14c0-8.8-5.6-16.6-13.8-19.5v-70.5
	C239.8,161.9,249.1,152.6,260.6,152.6z M357.5,284.2c11.5,0,20.8,9.3,20.8,20.8v6.9H253.7v-6.9c0-11.5,9.3-20.8,20.8-20.8H357.5z
	 M367.3,367.2l19.8,34.6H244.8l19.8-34.6H367.3z M378.3,353.4H253.7v-27.7h124.6V353.4z M198.3,332.6v-69.2c0-3.8,3.1-6.9,6.9-6.9
	h27.7c3.8,0,6.9,3.1,6.9,6.9v90h-20.8C207.6,353.4,198.3,344.1,198.3,332.6z M47.2,401.8C50.1,393.5,58,388,66.8,388h41.5
	c8.8,0,16.6,5.6,19.6,13.8H47.2z M221.3,401.8l9.9-34.6h17.5l-19.8,34.6H221.3z M403.1,401.8l-19.8-34.6h17.5l9.9,34.6H403.1z
	 M433.6,332.6c0,11.5-9.3,20.8-20.8,20.8h-20.8v-90c0-3.8,3.1-6.9,6.9-6.9h27.7c3.8,0,6.9,3.1,6.9,6.9V332.6z"/>
</svg>
