<?xml version="1.0" encoding="utf-8"?>
<!-- Generator: Adobe Illustrator 26.2.1, SVG Export Plug-In . SVG Version: 6.00 Build 0)  -->
<svg version="1.1" id="Layer_1" xmlns="http://www.w3.org/2000/svg" xmlns:xlink="http://www.w3.org/1999/xlink" x="0px" y="0px"
	 viewBox="0 0 512 512" style="enable-background:new 0 0 512 512;" xml:space="preserve">
<path d="M500.1,0.5H5.1C0.4,0.5-3.4,4.3-3.4,9v281.6c0,4.7,3.8,8.5,8.5,8.5h145.1V504c0,4.7,3.8,8.5,8.5,8.5h341.3
	c4.7,0,8.5-3.8,8.5-8.5V9C508.6,4.3,504.8,0.5,500.1,0.5z M491.5,495.4H167.3V290.6c0-4.7-3.8-8.5-8.5-8.5H13.7V17.6h477.9V495.4z"
	/>
<path d="M39.3,265h119.5c4.7,0,8.5-3.8,8.5-8.5v-51.2h17.1v51.2c0,4.7,3.8,8.5,8.5,8.5h110.9v17.1H192.9c-4.7,0-8.5,3.8-8.5,8.5
	v179.2c0,4.7,3.8,8.5,8.5,8.5h127.3c0.3,0.1,0.7,0.2,1,0.2h0l50.7-0.2h94.1c4.7,0,8.5-3.8,8.5-8.5V290.6c0-4.7-3.8-8.5-8.5-8.5
	h-34.1V265h34.1c4.7,0,8.5-3.8,8.5-8.5V43.2c0-4.7-3.8-8.5-8.5-8.5H192.9c-4.7,0-8.5,3.8-8.5,8.5v34.1h-17.1V43.2
	c0-4.7-3.8-8.5-8.5-8.5H39.3c-4.7,0-8.5,3.8-8.5,8.5v213.3C30.7,261.2,34.6,265,39.3,265z M201.4,333.3h34.1v93.9h-34.1V333.3z
	 M329.1,350.3l85.3-0.3l0.3,68.5l-42.6,0.2l-42.7,0.2L329.1,350.3z M380.8,435.7l34.1-0.1l0.1,25.6l-34.1,0.1L380.8,435.7z
	 M329.5,435.9l34.2-0.1l0.1,25.6h-34.1L329.5,435.9z M295.3,85.8h17.1V120h-17.1V85.8z M329.4,85.8h51.2v25.6h-51.2V85.8z
	 M397.7,85.8h17.1V120h-17.1V85.8z M423.3,51.7v17.1H286.7V51.7H423.3z M150.2,51.7v34.1c0,4.7,3.8,8.5,8.5,8.5h30l65.7,82.1
	c2.9,3.7,8.3,4.3,12,1.3c3.7-2.9,4.3-8.3,1.3-12l-66.4-83V51.7h68.3v25.6c0,4.7,3.8,8.5,8.5,8.5v42.7c0,4.7,3.8,8.5,8.5,8.5h34.1
	c4.7,0,8.5-3.8,8.5-8.5h51.2c0,4.7,3.8,8.5,8.5,8.5h34.1c4.7,0,8.5-3.8,8.5-8.5V85.8c4.7,0,8.5-3.8,8.5-8.5V51.7h17.1V248H426
	l-83.1-58.2c-3.9-2.6-9.1-1.7-11.8,2.2s-1.8,9.1,2,11.8l81.7,57.2v29.7c0,4.7,3.8,8.5,8.5,8.5h34.1v162.1h-25.3l-0.2-34.2
	c0-0.1,0-0.1,0-0.2s0-0.1,0-0.2l-0.4-85.4c0-4.7-3.8-8.5-8.5-8.5h0l-102.4,0.4c-2.3,0-4.4,0.9-6,2.5c-1.6,1.6-2.5,3.8-2.5,6.1
	l0.6,119.4H201.4v-17.1h42.7c4.7,0,8.5-3.8,8.5-8.5V324.8c0-4.7-3.8-8.5-8.5-8.5h-42.7v-17.1h110.9c4.7,0,8.5-3.8,8.5-8.5v-34.1
	c0-4.7-3.8-8.5-8.5-8.5H201.4v-51.2c0-4.7-3.8-8.5-8.5-8.5h-34.1c-4.7,0-8.5,3.8-8.5,8.5V248H47.8v-17.1h42.7c4.7,0,8.5-3.8,8.5-8.5
	V77.3c0-4.7-3.8-8.5-8.5-8.5H47.8V51.7H150.2z M47.8,85.8h34.1v128H47.8V85.8z"/>
</svg>
