<svg id="Flat" enable-background="new 0 0 64 64" height="512" viewBox="0 0 64 64" width="512" xmlns="http://www.w3.org/2000/svg"><g><g><path d="m61 7.5c-.276 0-.5-.224-.5-.5v-6c0-.276.224-.5.5-.5s.5.224.5.5v6c0 .276-.224.5-.5.5z" fill="#7c6d6d"/></g><g><path d="m51 5.5c-.276 0-.5-.224-.5-.5v-4c0-.276.224-.5.5-.5s.5.224.5.5v4c0 .276-.224.5-.5.5z" fill="#7c6d6d"/></g><g><path d="m56 15.5c-.276 0-.5-.224-.5-.5v-14c0-.276.224-.5.5-.5s.5.224.5.5v14c0 .276-.224.5-.5.5z" fill="#7c6d6d"/></g><path d="m51.59 26.89-13.59-11.89v18h1v.88l2.21 1.94 4.79 4.18h1v.88l7 6.12v-15.71-2.29z" fill="#e8e7e6"/><path d="m24.15 20.87-1.15-1v-.87h-1v-18l16 14v18l-7-6.12v-.88h-1z" fill="#dad4d4"/><path d="m3 19h-1v-5-13h20v18z" fill="#e8e7e6"/><g fill="#f6f5f5"><path d="m22 1v.94l-20 16.89v-5.23l14.91-12.6z"/><path d="m22 3.25v2.62l-15.54 13.13h-3.1z"/></g><g fill="#f6f5f5"><path d="m37.2 14.3-10.46 8.84-2.59-2.27-.45-.4 10.46-8.83z"/><path d="m39.49 16.3-1.49 1.26-8.98 7.58-1.52-1.33 10.46-8.84.04.03z"/></g><g fill="#f6f5f5"><path d="m53.29 28.38-10.47 8.84-1.61-1.4-1.43-1.26 10.47-8.85 1.34 1.18z"/><path d="m54 29.09v2.62l-8.89 7.51-1.52-1.33z"/></g><g fill="#ebc09e"><path d="m46 40h-9v4h3 4 3v-4z"/><path d="m38 33h-9v4h3 4 3v-4z"/><path d="m30 26h-9v4h3 4 3v-4z"/><path d="m63 58v5h-22v-5h5z"/></g><path d="m63 58v5h-22v-2h18c1.105 0 2-.895 2-2v-1z" fill="#e09d70"/><path d="m63 54v4h-17v-4h3 2z" fill="#ebc09e"/><path d="m63 54v4h-17v-2h13c1.105 0 2-.895 2-2z" fill="#e09d70"/><path d="m63 9v3c0 .55-.45 1-1 1h-2c-.55 0-1-.45-1-1v-3c0-1.1.9-2 2-2 .55 0 1.05.22 1.41.59.37.36.59.86.59 1.41z" fill="#c95f5f"/><path d="m58 17v3c0 .55-.45 1-1 1h-2c-.55 0-1-.45-1-1v-3c0-1.1.9-2 2-2 .55 0 1.05.22 1.41.59.37.36.59.86.59 1.41z" fill="#c95f5f"/><path d="m53 7v3c0 .55-.45 1-1 1h-2c-.55 0-1-.45-1-1v-3c0-1.1.9-2 2-2 .55 0 1.05.22 1.41.59.37.36.59.86.59 1.41z" fill="#c95f5f"/><path d="m53 7v3c0 .55-.45 1-1 1h-2c-.55 0-1-.45-1-1h1c.55 0 1-.45 1-1v-3c0-.36-.09-.69-.26-.98.08-.01.17-.02.26-.02.55 0 1.05.22 1.41.59.37.36.59.86.59 1.41z" fill="#c14040"/><path d="m63 9v3c0 .55-.45 1-1 1h-2c-.55 0-1-.45-1-1h1c.55 0 1-.45 1-1v-3c0-.36-.09-.69-.26-.98.08-.01.17-.02.26-.02.55 0 1.05.22 1.41.59.37.36.59.86.59 1.41z" fill="#c14040"/><path d="m58 17v3c0 .55-.45 1-1 1h-2c-.55 0-1-.45-1-1h1c.55 0 1-.45 1-1v-3c0-.36-.09-.69-.26-.98.08-.01.17-.02.26-.02.55 0 1.05.22 1.41.59.37.36.59.86.59 1.41z" fill="#c14040"/><path d="m54 47h-9v4h3 4 3v-4z" fill="#ebc09e"/><path d="m55 47v4h-10v-2h7c.552 0 1-.448 1-1v-1z" fill="#e09d70"/><path d="m47 40v4h-10v-2h7c.552 0 1-.448 1-1v-1z" fill="#e09d70"/><path d="m39 33v4h-10v-2h7c.552 0 1-.448 1-1v-1z" fill="#e09d70"/><path d="m31 26v4h-10v-2h7c.552 0 1-.448 1-1v-1z" fill="#e09d70"/><path d="m33.73 48.09s.36 8.67-4.15 8.91h-.39c-.36-.44-.57-.9-.67-1.36.42-.76.53-1.7.46-2.67h.02c1.35-2.63 4.73-4.88 4.73-4.88z" fill="#88a80d"/><path d="m32.71 57s1.04 2.72-.84 5.57c-.18.28-.49.43-.82.43h-8.1c-.33 0-.64-.15-.82-.43-1.88-2.85-.84-5.57-.84-5.57h3.33c.12.01.25.01.38 0h2 2.19c.14.01.27.01.39 0z" fill="#e8e7e6"/><path d="m31.87 62.57c-.18.28-.49.43-.82.43h-4c.33 0 .64-.15.82-.43 1.88-2.85.84-5.57.84-5.57h.48c.14.01.27.01.39 0h3.13s1.04 2.72-.84 5.57z" fill="#cccaca"/><path d="m28.98 52.97c.07.97-.04 1.91-.46 2.67-.31.57-.8 1.04-1.52 1.36-.62-.28-1.07-.67-1.39-1.14-.58-.86-.69-1.99-.56-3.15.3-2.76 1.95-5.71 1.95-5.71s1.76 3.14 1.98 5.97z" fill="#88a80d"/><path d="m30.52 55.64c-.29.53-.73.98-1.38 1.29-.33-.42-.53-.85-.62-1.29.42-.76.53-1.7.46-2.67h.02c.4-.76.96-1.5 1.57-2.15.2.7.35 1.44.41 2.15.07.97-.04 1.91-.46 2.67z" fill="#5ba50e"/><path d="m28.52 55.64c-.31.57-.8 1.04-1.52 1.36-.62-.28-1.07-.67-1.39-1.14-.58-.86-.69-1.99-.56-3.15.01-.08.02-.15.03-.23.09.5.26.97.53 1.38.32.47.77.86 1.39 1.14.72-.32 1.21-.79 1.52-1.36.2-.36.33-.77.4-1.2.03.18.05.35.06.53.07.97-.04 1.91-.46 2.67z" fill="#5ba50e"/><path d="m25.61 55.86c-.11.39-.31.77-.61 1.14h-.38c-4.52-.23-4.16-8.91-4.16-8.91s3.15 2.1 4.59 4.62c-.13 1.16-.02 2.29.56 3.15z" fill="#88a80d"/><path d="m25.61 55.86c-.11.39-.31.77-.61 1.14-.62-.28-1.07-.67-1.39-1.14-.58-.86-.69-1.99-.56-3.15.07-.68.23-1.38.43-2.04.59.62 1.15 1.31 1.57 2.04-.13 1.16-.02 2.29.56 3.15z" fill="#5ba50e"/><path d="m23 19.87v3.13h-22v-4h1 1 19 1z" fill="#ebc09e"/><path d="m23 19v4h-22v-2h19c.552 0 1-.448 1-1v-1z" fill="#e09d70"/><path d="m23.31 2.14-1.31 1.11v-2.25l.54.48z" fill="#e8e7e6"/><path d="m12.72 41.58c2.88-3.77 6.28-7.49 6.28-7.49s-4.07 12.34-8.83 13.87c0-.05 0-.04 0-.09 1.64-.92 2.31-3.64 2.55-6.29z" fill="#88a80d"/><path d="m15.99 48s.91 8.31-1.16 12.76c-.64 1.38-2.07 2.24-3.6 2.24h-4.47c-1.53 0-2.95-.86-3.6-2.24-2.06-4.45-1.16-12.76-1.16-12.76h7 1 .17.1z" fill="#d3bebe"/><path d="m14.83 60.76c-.64 1.38-2.07 2.24-3.6 2.24h-4c1.53 0 2.96-.86 3.6-2.24 2.07-4.45 1.16-12.76 1.16-12.76h4s.91 8.31-1.16 12.76z" fill="#aa9f9f"/><path d="m12.73 35.55s.28 2.97-.01 6.03c-.24 2.65-.91 5.37-2.55 6.29-.05.03-.11.06-.17.09-.25-.47-.38-1-.41-1.58.25-.91.43-1.96.54-3.12h.01c1.12-3.34 2.59-7.71 2.59-7.71z" fill="#5ba50e"/><path d="m9 26.96s1.95 8.4 1.13 16.3c-.11 1.16-.29 2.21-.54 3.12-.16.6-.36 1.13-.59 1.58.59-2.01-.19-5.13-1.3-8.07-.28-7.76 1.3-12.93 1.3-12.93z" fill="#88a80d"/><path d="m7.7 39.89c1.11 2.94 1.89 6.06 1.3 8.07-.69-.44-1.29-1.17-1.81-2.07 0 0-.01-.01-.01-.02-.31-.54-.6-1.15-.85-1.8-1.91-4.86-2.33-12.02-2.33-12.02s2.16 3.75 3.7 7.84z" fill="#5ba50e"/><path d="m7.19 45.89c.34.78.23 1.23.11 1.96-4.1-.42-6.3-9.52-6.3-9.52s3.35 2.51 5.33 5.74c.25.65.54 1.26.85 1.8 0 .01.01.02.01.02z" fill="#88a80d"/><path d="m28 30h-4v2c0 .552.448 1 1 1h2c.552 0 1-.448 1-1z" fill="#e09d70"/><path d="m36 37h-4v2c0 .552.448 1 1 1h2c.552 0 1-.448 1-1z" fill="#e09d70"/><path d="m44 44h-4v2c0 .552.448 1 1 1h2c.552 0 1-.448 1-1z" fill="#e09d70"/><path d="m52 51h-4v2c0 .552.448 1 1 1h2c.552 0 1-.448 1-1z" fill="#e09d70"/><path d="m50.75 6.625c-.643 0-.645 1 0 1 .643 0 .645-1 0-1z" fill="#f9cfcf"/><path d="m55.75 16.625c-.643 0-.645 1 0 1 .643 0 .645-1 0-1z" fill="#f9cfcf"/><path d="m61 8.375c-.643 0-.645 1 0 1 .643 0 .645-1 0-1z" fill="#f9cfcf"/><path d="m4.375 50.875c-1.287 0-1.289 2 0 2 1.287 0 1.289-2 0-2z" fill="#eae5e5"/><path d="m4.062 49.563c-.643 0-.645 1 0 1 .644 0 .645-1 0-1z" fill="#eae5e5"/></g></svg>